<?xml version="1.0" encoding="utf-8"?>
<!-- Generator: Adobe Illustrator 26.5.0, SVG Export Plug-In . SVG Version: 6.00 Build 0)  -->
<svg version="1.0" id="katman_1" xmlns="http://www.w3.org/2000/svg" xmlns:xlink="http://www.w3.org/1999/xlink" x="0px" y="0px"
	 viewBox="0 0 1190.55 841.89" style="enable-background:new 0 0 1190.55 841.89;" xml:space="preserve">
<path d="M598.07,362.66c19.26-0.19,37.82-2.14,55.35-5.64c-7.65-30.99-16.27-61.03-25.57-88.77c-9.44,2.05-19.42,3.23-29.78,3.43
	V362.66L598.07,362.66z M856.97,585.92c7.93-13.2,14.09-26.64,18.62-40.22c-8.05,10.78-17.44,21.04-28.05,30.66
	c-2.51,13.71-6.63,26.77-12.5,39c3.55-4.02,6.9-8.13,10.05-12.34l0.17,0.13C849.35,597.55,853.25,591.8,856.97,585.92L856.97,585.92
	z M880.83,526.92c5.94-26.56,5.96-53.46,1.03-79.92c-9.41,16.18-21.71,31.38-36.49,45.29c5.17,25.8,6.62,50.87,3.68,74.27
	C861.75,554.24,872.44,540.95,880.83,526.92L880.83,526.92z M879.95,437.8c-5.67-24.69-15.6-48.93-28.95-72.08
	c-8.92,14.53-20.76,28.11-35.08,40.44c6.08,12.78,11.47,25.64,16.06,38.45c4.89,13.63,8.87,27.21,11.89,40.63
	C858.84,470.69,871.03,454.75,879.95,437.8L879.95,437.8z M847.43,359.7c-2.48-4.09-5.06-8.14-7.75-12.15
	c-15.31-22.8-33.92-44.3-55-63.9c-6.4,11.06-15.01,21.38-25.5,30.78c21.07,27.31,39.38,56.42,53.96,86
	C827.34,388,838.93,374.32,847.43,359.7L847.43,359.7z M780.03,279.39c-12.99-11.7-26.84-22.69-41.42-32.8
	c-13.14-9.11-26.86-17.51-41-25.1c-2.78,5.63-6.52,10.95-11.09,15.87c24.91,21.5,48.17,45.97,68.88,72.21
	C765.63,300.34,773.95,290.2,780.03,279.39L780.03,279.39z M692.16,218.6c-23.4-12.12-47.92-22.03-72.97-29.25
	c7.24,4.12,14.44,8.53,21.54,13.21c14.07,9.28,27.8,19.62,41.09,30.81C686.12,228.78,689.6,223.83,692.16,218.6L692.16,218.6z
	 M565.38,178.23c-22.65-2.81-45.39-3.24-67.79-0.95c-1.96,4.1-3.35,8.36-4.1,12.75C516.3,184.08,540.38,180.08,565.38,178.23
	L565.38,178.23z M490.53,178.09c-29.41,3.76-58.15,12.31-85.28,26.35c-3.46,8.2-5.66,16.71-6.44,25.46
	c26.23-16.16,55.93-29.1,88.23-38.13C487.57,187.07,488.76,182.5,490.53,178.09L490.53,178.09z M396.98,208.93
	c-21.91,12.41-42.66,28.58-61.74,48.87c-0.39,0.92-0.77,1.83-1.14,2.76c-4.16,10.54-6.73,21.49-7.58,32.7
	c12.74-16.14,27.78-31,44.82-44.31c6.71-5.25,13.75-10.24,21.06-14.99C392.7,225.37,394.27,217.02,396.98,208.93L396.98,208.93z
	 M324.5,269.87l-0.84,0.98c-10.72,19.38-19.41,40.04-25.82,61.68l0.48,0.13c-1.26,4.39-2.29,8.84-3.1,13.3
	c6.49-15.48,14.83-30.25,24.84-44.14l-0.01-0.39h0.01C320.07,290.64,321.6,280.11,324.5,269.87L324.5,269.87z M344.59,239.84
	c17.57-16.31,36.32-29.52,55.91-39.89c4.52-10.04,10.82-19.58,18.68-28.47c-8.81,3.82-17.48,8.45-25.96,13.94l-0.01-0.01
	c-5.96,5.12-11.74,10.44-17.3,16c-6.52,6.51-12.73,13.33-18.64,20.41l0.27,0.23C352.7,227.79,348.37,233.74,344.59,239.84
	L344.59,239.84z M409.68,195.33c26.85-12.85,55.13-20.56,83.98-23.84c2.69-4.87,6.09-9.5,10.15-13.81
	c-24.09-1.78-47.92,0.79-70.93,8.54C423.28,175.16,415.44,184.94,409.68,195.33L409.68,195.33z M501.31,170.72
	c22.47-1.93,45.23-1.23,67.89,1.8c-19.05-7.1-38.3-11.95-57.42-14.11C507.67,162.24,504.16,166.37,501.31,170.72L501.31,170.72z
	 M623.84,184.31c24.26,7.2,48,16.88,70.7,28.62c1.71-4.9,2.62-10.01,2.62-15.25l-0.02-1.16
	C673.94,190.32,649.38,186.18,623.84,184.31L623.84,184.31z M700.04,215.83c14.51,7.77,28.58,16.37,42.05,25.71
	c14.35,9.95,28.01,20.76,40.86,32.24c5.54-11.55,8.54-23.79,8.57-36.46c-26.07-16.55-55.79-29.82-88.22-39.09
	C703.24,204.3,702.11,210.19,700.04,215.83L700.04,215.83z M787.69,278.08c21.9,20.2,41.23,42.44,57.07,66.05
	c2.08,3.1,4.09,6.23,6.05,9.38c8.05-15.73,12.57-32.46,12.94-49.8c-13.45-18.34-29.88-35.12-48.84-49.94
	c-5.57-4.35-11.36-8.52-17.36-12.53C796.96,254.07,793.54,266.44,787.69,278.08L787.69,278.08z M854.54,359.63
	c13.23,22.34,23.34,45.69,29.63,69.54c8.37-18.52,12.87-38.15,12.87-58.47v-0.01c-5.99-20.82-15.34-40.55-27.58-58.85
	C867.94,328.51,862.79,344.55,854.54,359.63L854.54,359.63z M886.44,438.59c5.1,23.16,6.55,46.72,3.73,70.18
	c2.79-6.4,5.12-12.93,6.94-19.58l0.07,0.02c4.72-20.82,7.34-42.44,7.63-64.62h-0.01c-0.07-11.45-1.11-22.7-3.07-33.69
	C899.38,407.45,894.16,423.41,886.44,438.59L886.44,438.59z M817.12,633.45c10.97-15.09,18.41-32.06,22.72-50.38
	c-13.39,11.17-28.46,21.41-44.97,30.52c-5.79,3.2-11.77,6.24-17.91,9.15c-1.89,17.87-5.59,33.62-11.17,46.58
	C784.95,658.96,802.2,646.88,817.12,633.45L817.12,633.45z M841.83,573.25c4.05-23.75,3.2-49.49-1.77-76.12
	c-8.49,7.52-17.71,14.65-27.62,21.32c-11.58,7.8-24.1,14.95-37.39,21.43c2.41,19.5,3.58,38.1,3.44,55.32
	c-0.06,7.04-0.36,13.85-0.87,20.41c4.88-2.38,9.65-4.85,14.3-7.41C810.57,597.9,827.33,586.15,841.83,573.25L841.83,573.25z
	 M838.66,490.14c-3.04-14.31-7.22-28.85-12.46-43.45c-4.35-12.14-9.43-24.33-15.15-36.46c-6.89,5.59-14.29,10.92-22.18,15.93
	c-10.44,6.64-21.73,12.71-33.74,18.21c2.23,7.76,4.32,15.49,6.25,23.17c5.65,22.58,9.95,44.74,12.83,65.91
	c12.35-6.1,24-12.82,34.81-20.1C819.75,506.13,829.65,498.37,838.66,490.14L838.66,490.14z M808.32,404.53
	c-14.45-29.58-32.72-58.73-53.8-86.09c-5.19,4.31-10.77,8.37-16.74,12.21c-6.49,4.18-13.42,8.08-20.73,11.67
	c14.57,31.3,26.76,63.87,36.34,96.09c11.44-5.28,22.21-11.12,32.18-17.45C793.7,415.8,801.3,410.31,808.32,404.53L808.32,404.53z
	 M750.75,313.58c-20.61-26.13-43.78-50.51-68.59-71.87c-3.34,3.09-7.03,5.99-11.03,8.68c-1.59,1.07-3.24,2.11-4.92,3.11
	c16.6,23.54,31.59,49.26,44.8,76.13c1.16,2.36,2.3,4.74,3.43,7.12c7.06-3.47,13.77-7.25,20.03-11.28
	C740.28,321.73,745.71,317.77,750.75,313.58L750.75,313.58z M677.43,237.69c-12.98-10.89-26.38-20.95-40.09-30
	c-7.01-4.63-14.11-8.98-21.27-13.06c16.61,15.86,32.16,34.03,46.54,53.86c1.75-1.03,3.45-2.09,5.08-3.2
	C671.21,242.92,674.47,240.39,677.43,237.69L677.43,237.69z M421.3,163.94c2.79-1.12,5.59-2.17,8.4-3.14
	c3.2-2.93,6.58-5.77,10.13-8.52C433.51,155.96,427.33,159.85,421.3,163.94L421.3,163.94z M444.59,156.38
	c21.29-5.32,43.14-6.59,65.14-4.39c2.83-2.47,5.88-4.82,9.14-7.02c0.92-0.62,1.86-1.23,2.81-1.82c-13.68-4.25-27.8-6.84-42.31-7.54
	c-8.49,3.96-16.46,8.33-23.84,13.09C451.72,151.16,448.08,153.73,444.59,156.38L444.59,156.38z M518.21,153.01
	c17.72,2.48,35.49,7.16,53.11,13.73c-13.45-8.67-27.44-15.78-41.94-20.99c-2.46,1.37-4.82,2.8-7.08,4.32
	C520.89,151.02,519.54,152.01,518.21,153.01L518.21,153.01z M736.37,696.23c5.27-3.02,9.93-7.17,14.01-12.35
	c-2.41,1.11-4.83,2.2-7.29,3.25c-18.42,7.91-38.17,14.38-58.96,19.22c-2.05,4.98-4.37,9.32-6.98,12.95
	C697.83,713.62,717.64,705.84,736.37,696.23L736.37,696.23z M756.81,674c6.84-12.63,11.35-29.04,13.67-48.25
	c-23.12,10.41-48.44,18.84-75.42,24.88c-1.38,19.15-4.12,35.69-8.39,48.78c18.99-4.64,37.07-10.66,53.99-17.93
	C746.17,679.12,751.55,676.62,756.81,674L756.81,674z M771.23,618.65c0.68-7.48,1.06-15.32,1.13-23.5
	c0.13-16.35-0.94-33.99-3.15-52.49c-22.95,10.64-48.14,19.24-74.99,25.41c1.74,24.65,2.34,47.69,1.62,68.2
	c-0.09,2.7-0.22,5.36-0.36,7.97C722.66,638.03,748.1,629.35,771.23,618.65L771.23,618.65z M768.4,536.25
	c-2.85-21.54-7.2-44.15-12.98-67.23c-1.84-7.33-3.83-14.72-5.95-22.12c-20.55,8.93-43.11,16.13-67.14,21.27
	c5.22,32.43,9.12,64.15,11.42,93.7C720.55,555.66,745.62,546.97,768.4,536.25L768.4,536.25z M747.75,440.95
	c-9.53-32.21-21.69-64.75-36.23-96.01c-15.42,7.05-32.43,12.72-50.61,16.77c0.87,3.57,1.73,7.17,2.57,10.76
	c6.92,29.63,12.94,59.87,17.87,89.61C705.15,456.98,727.45,449.82,747.75,440.95L747.75,440.95z M708.9,339.38
	c-1.12-2.36-2.25-4.71-3.4-7.05c-13.17-26.78-28.11-52.41-44.66-75.82c-8.16,4.26-17.23,7.75-27,10.31
	c9.33,27.85,17.94,57.92,25.6,88.94C677.22,351.8,693.84,346.26,708.9,339.38L708.9,339.38z M657.21,251.46
	c-16.2-22.27-33.87-42.41-52.88-59.4c9.63,20.31,18.88,43.62,27.53,68.92C641.03,258.61,649.54,255.39,657.21,251.46L657.21,251.46z
	 M491.35,130.45c12.84,1.49,25.34,4.42,37.5,8.6c7.86-4.13,16.58-7.56,25.97-10.11c-7.12-6.17-14.22-10-21.25-11.13
	C518.64,120.95,504.48,125.22,491.35,130.45L491.35,130.45z M536.81,141.98c16.93,6.68,33.16,15.83,48.62,27
	c-4.24-7.36-8.55-14.09-12.88-20.07c-4.14-5.71-8.3-10.73-12.45-14.99C551.77,135.93,543.96,138.66,536.81,141.98L536.81,141.98z
	 M761.14,678.68c-1.1,1.92-2.25,3.76-3.46,5.51c9.44-5.84,18.56-12.16,27.29-18.94C777.37,670.01,769.41,674.49,761.14,678.68
	L761.14,678.68z M737.41,702.62l-0.71,0.37l-0.01-0.01C694.07,724.41,645.95,736.5,595,736.5c-50.95,0-99.07-12.08-141.69-33.51
	l0,0.01l-0.71-0.37c-30.09-15.22-57.42-35.09-81.02-58.69c-41.78-41.78-71.9-95.2-85.11-154.98c-0.45-1.73-0.88-3.46-1.27-5.21
	l0.15-0.03c-4.16-20.43-6.34-41.57-6.34-63.22c0-87.24,35.38-166.25,92.57-223.44C428.75,139.88,507.75,104.5,595,104.5
	c87.25,0,166.26,35.37,223.44,92.56C875.62,254.25,911,333.26,911,420.5s-35.38,166.25-92.57,223.43
	C794.83,667.53,767.49,687.4,737.41,702.62L737.41,702.62z M666.12,722.1c4.14-3.15,7.69-7.92,10.7-14.13
	c-25,5.3-51.41,8.24-78.74,8.44v13.9C621.47,730.08,644.23,727.25,666.12,722.1L666.12,722.1z M679.74,701.04
	c4.6-12.55,7.58-29.24,9.08-49.05c-28.69,5.99-59.16,9.31-90.75,9.51v48.77C626.51,710.04,653.92,706.82,679.74,701.04
	L679.74,701.04z M689.25,645.61c0.18-3.12,0.34-6.3,0.45-9.56c0.71-20.06,0.14-42.56-1.54-66.63c-28.47,6.1-58.72,9.48-90.09,9.69
	v76.24C629.86,655.14,660.47,651.73,689.25,645.61L689.25,645.61z M687.71,563.23c-2.27-29.54-6.16-61.33-11.39-93.83
	c-24.77,4.89-51.03,7.62-78.24,7.81v95.74C629.32,572.74,659.42,569.34,687.71,563.23L687.71,563.23z M675.33,463.33
	c-4.92-29.68-10.92-59.87-17.84-89.46c-0.85-3.65-1.72-7.27-2.6-10.89c-18,3.61-37.06,5.64-56.82,5.83v102.25
	C624.96,470.86,650.89,468.17,675.33,463.33L675.33,463.33z M625.87,262.39c-8.75-25.52-18.08-48.98-27.8-69.27v72.39
	C607.74,265.33,617.06,264.25,625.87,262.39L625.87,262.39z M545.89,115.5c5.41,2.69,10.78,6.62,16.1,11.68
	c9.48-2.07,19.53-3.28,29.94-3.48v-12.16C576.05,111.69,560.64,113.06,545.89,115.5L545.89,115.5z M567.11,132.4
	c3.51,3.83,6.98,8.14,10.43,12.89c4.85,6.69,9.66,14.29,14.39,22.67v-38.12C583.34,130.02,575.03,130.9,567.11,132.4L567.11,132.4z
	 M791.2,229.9c-0.78-8.74-2.95-17.25-6.4-25.43c-27.14-14.07-55.9-22.61-85.32-26.38c1.76,4.4,2.93,8.98,3.48,13.67
	C735.26,200.8,764.96,213.74,791.2,229.9L791.2,229.9z M566.28,184.28c-25.59,1.87-50.18,6.04-73.42,12.26l-0.02,1.15
	c0,5.23,0.92,10.35,2.62,15.25C518.19,201.18,541.98,191.49,566.28,184.28L566.28,184.28z M486.69,198.23
	c-32.43,9.27-62.15,22.54-88.22,39.1c0.04,12.67,3.04,24.91,8.57,36.45c12.85-11.49,26.51-22.29,40.87-32.25
	c13.47-9.34,27.54-17.93,42.05-25.7C487.89,210.2,486.76,204.31,486.69,198.23L486.69,198.23z M392.44,241.26
	c-5.98,4-11.77,8.17-17.33,12.51c-18.98,14.83-35.42,31.63-48.87,49.98c0.37,17.33,4.88,34.04,12.94,49.76
	c1.96-3.14,3.97-6.28,6.05-9.38c15.85-23.61,35.18-45.85,57.08-66.05C396.47,266.44,393.06,254.08,392.44,241.26L392.44,241.26z
	 M320.55,311.88c-12.25,18.32-21.59,38.06-27.58,58.91c0.01,20.3,4.52,39.89,12.87,58.39c6.29-23.85,16.4-47.21,29.62-69.54
	C327.2,344.56,322.07,328.54,320.55,311.88L320.55,311.88z M288.27,391.01c-1.94,10.95-2.98,22.17-3.05,33.59h-0.04
	c0.28,21.8,2.82,43.06,7.39,63.55c1.87,7.03,4.31,13.94,7.26,20.7c-2.83-23.48-1.39-47.04,3.72-70.23
	C295.85,423.46,290.64,407.52,288.27,391.01L288.27,391.01z M624.81,178.21c24.93,1.86,48.93,5.87,71.68,11.81
	c-0.75-4.38-2.13-8.65-4.09-12.74C670.06,175,647.4,175.42,624.81,178.21L624.81,178.21z M797.6,233.93
	c7.33,4.75,14.37,9.76,21.1,15.02c17.01,13.29,32.03,28.13,44.76,44.24c-0.8-10.47-3.1-20.68-6.78-30.53
	c-0.62-1.66-1.29-3.3-1.99-4.94c-19.08-20.27-39.81-36.41-61.7-48.81C795.71,217,797.28,225.36,797.6,233.93L797.6,233.93z
	 M869.94,301.78c9.99,13.86,18.31,28.58,24.8,44.02c-0.86-4.59-1.92-9.14-3.22-13.6l0.49-0.15c-6.39-21.47-15.05-41.97-25.7-61.22
	l-0.86-1.01c2.93,10.26,4.49,20.81,4.49,31.6L869.94,301.78L869.94,301.78z M780.38,195.37c-5.75-10.4-13.57-20.19-23.16-29.13
	c-23.04-7.77-46.91-10.35-71.03-8.57c4.06,4.32,7.48,8.95,10.17,13.82C725.22,174.77,753.52,182.5,780.38,195.37L780.38,195.37z
	 M620.75,172.53c22.67-3.04,45.46-3.75,67.94-1.81c-2.86-4.35-6.37-8.48-10.47-12.31C659.08,160.57,639.81,165.42,620.75,172.53
	L620.75,172.53z M789.45,199.93c19.52,10.32,38.21,23.46,55.72,39.69c-2.92-4.66-6.15-9.22-9.7-13.67l0.39-0.31
	c-6.85-8.45-14.11-16.53-21.79-24.22c-5.55-5.55-11.32-10.88-17.28-16l0,0.01c-8.54-5.53-17.26-10.18-26.13-14.02
	C778.56,180.31,784.89,189.87,789.45,199.93L789.45,199.93z M570.78,189.36c-25.04,7.22-49.56,17.12-72.95,29.25
	c2.56,5.22,6.05,10.18,10.34,14.77c13.3-11.18,27.03-21.52,41.09-30.8C556.36,197.9,563.54,193.49,570.78,189.36L570.78,189.36z
	 M492.39,221.48c-14.14,7.59-27.86,15.99-41,25.1c-14.57,10.11-28.44,21.1-41.43,32.81c6.08,10.81,14.41,20.95,24.64,30.17
	c20.71-26.24,43.97-50.71,68.88-72.21C498.91,232.43,495.17,227.12,492.39,221.48L492.39,221.48z M405.32,283.65
	c-21.07,19.6-39.69,41.1-54.99,63.9c-2.69,4.01-5.27,8.07-7.75,12.16c8.5,14.62,20.08,28.29,34.28,40.72
	c14.58-29.57,32.88-58.68,53.96-86C420.33,305.02,411.73,294.7,405.32,283.65L405.32,283.65z M339.01,365.73
	c-13.35,23.15-23.27,47.38-28.95,72.07c8.92,16.96,21.11,32.89,36.08,47.44c3.01-13.41,7.01-27,11.89-40.63
	c4.59-12.81,9.97-25.67,16.05-38.45C359.76,393.83,347.92,380.25,339.01,365.73L339.01,365.73z M308.14,447.02
	c-4.92,26.47-4.9,53.39,1.06,79.97c8.38,14.02,19.07,27.29,31.77,39.59c-2.94-23.41-1.49-48.49,3.67-74.29
	C329.86,478.38,317.55,463.2,308.14,447.02L308.14,447.02z M314.44,545.81c4.54,13.59,10.72,27.05,18.67,40.26
	c3.98,6.28,8.17,12.42,12.58,18.39l0.08-0.06c2.97,3.89,6.12,7.69,9.42,11.42c-5.97-12.34-10.17-25.54-12.71-39.4
	C331.88,566.82,322.49,556.58,314.44,545.81L314.44,545.81z M745.52,156.41c-10.24-7.79-21.93-14.78-34.81-20.78
	c-14.54,0.69-28.68,3.28-42.39,7.54c0.95,0.6,1.89,1.2,2.81,1.82c3.26,2.2,6.31,4.55,9.14,7.02
	C702.3,149.78,724.19,151.06,745.52,156.41L745.52,156.41z M618.63,166.76c17.63-6.58,35.42-11.27,53.15-13.75
	c-1.33-1.01-2.68-2-4.09-2.94c-2.25-1.52-4.61-2.96-7.07-4.33C646.11,150.97,632.09,158.08,618.63,166.76L618.63,166.76z
	 M760.1,160.73c2.88,0.99,5.74,2.06,8.6,3.21c-6.22-4.21-12.57-8.22-19.09-11.98C753.29,154.78,756.79,157.71,760.1,160.73
	L760.1,160.73z M573.91,194.64c-7.15,4.08-14.24,8.42-21.25,13.05c-13.72,9.05-27.11,19.12-40.09,30.01
	c2.96,2.69,6.22,5.23,9.74,7.6c1.63,1.1,3.33,2.18,5.08,3.2C541.75,228.66,557.3,210.51,573.91,194.64L573.91,194.64z
	 M507.85,241.71c-24.81,21.36-47.99,45.74-68.6,71.88c5.04,4.19,10.48,8.15,16.29,11.89c6.26,4.04,12.97,7.82,20.03,11.29
	c1.13-2.38,2.28-4.77,3.44-7.13c13.21-26.86,28.2-52.59,44.79-76.13c-1.68-1-3.34-2.04-4.92-3.11
	C514.88,247.69,511.19,244.79,507.85,241.71L507.85,241.71z M435.48,318.43c-21.07,27.36-39.34,56.52-53.8,86.1
	c7.02,5.78,14.61,11.28,22.73,16.44c9.98,6.34,20.75,12.16,32.19,17.45c9.58-32.22,21.77-64.78,36.34-96.09
	c-7.31-3.58-14.25-7.49-20.73-11.67C446.25,326.8,440.67,322.72,435.48,318.43L435.48,318.43z M378.94,410.23
	c-5.72,12.12-10.8,24.32-15.15,36.46c-5.23,14.6-9.42,29.14-12.45,43.45c9.01,8.23,18.91,15.99,29.64,23.21
	c10.81,7.28,22.46,13.99,34.81,20.1c2.88-21.18,7.18-43.33,12.83-65.91c1.92-7.68,4.02-15.41,6.25-23.16
	c-12-5.5-23.3-11.58-33.74-18.22C393.24,421.14,385.83,415.82,378.94,410.23L378.94,410.23z M349.94,497.13
	c-4.97,26.64-5.83,52.39-1.76,76.15c13.44,11.96,28.82,22.92,45.86,32.66c5.92,3.38,12.04,6.6,18.34,9.68
	c-0.51-6.55-0.8-13.37-0.87-20.41c-0.15-17.22,1.03-35.83,3.44-55.33c-13.3-6.47-25.81-13.63-37.39-21.42
	C367.66,511.78,358.44,504.66,349.94,497.13L349.94,497.13z M350.17,583.1c4.35,18.51,11.91,35.63,23.08,50.83
	c14.86,13.3,31.99,25.24,51.01,35.51c-5.61-12.97-9.32-28.77-11.22-46.68c-7.61-3.61-14.97-7.44-22.05-11.49
	C376.09,602.76,362.43,593.32,350.17,583.1L350.17,583.1z M698.68,130.44c-13.14-5.22-27.29-9.49-42.25-12.64
	c-7.03,1.12-14.14,4.97-21.26,11.13c9.39,2.55,18.11,5.98,25.98,10.11C673.32,134.86,685.84,131.93,698.68,130.44L698.68,130.44z
	 M432.3,684.18c-1.18-1.72-2.3-3.51-3.38-5.39c-8.04-4.06-15.79-8.4-23.21-13.01C414.23,672.36,423.12,678.5,432.3,684.18
	L432.3,684.18z M604.55,168.98c15.47-11.17,31.7-20.33,48.64-27.01c-7.17-3.31-14.98-6.04-23.3-8.05
	c-4.16,4.25-8.31,9.26-12.45,14.98C613.11,154.88,608.8,161.62,604.55,168.98L604.55,168.98z M585.7,192.03
	c-19.02,17-36.71,37.15-52.91,59.43c7.67,3.93,16.19,7.15,25.35,9.52C566.79,235.67,576.06,212.34,585.7,192.03L585.7,192.03z
	 M529.15,256.5c-16.54,23.41-31.48,49.05-44.65,75.82c-1.15,2.34-2.28,4.7-3.4,7.06c15.05,6.87,31.67,12.41,49.45,16.37
	c7.66-31.01,16.28-61.09,25.6-88.94C546.39,264.26,537.31,260.77,529.15,256.5L529.15,256.5z M478.49,344.94
	c-14.54,31.25-26.7,63.81-36.23,96.01c20.3,8.87,42.59,16.04,66.4,21.14c4.93-29.74,10.95-59.98,17.87-89.61
	c0.84-3.6,1.7-7.19,2.57-10.76C510.92,357.66,493.91,351.98,478.49,344.94L478.49,344.94z M440.52,446.9
	c-2.12,7.4-4.12,14.79-5.95,22.12c-5.78,23.08-10.13,45.7-12.98,67.23c22.78,10.73,47.85,19.41,74.64,25.63
	c2.29-29.56,6.2-61.29,11.42-93.72C483.63,463.03,461.08,455.83,440.52,446.9L440.52,446.9z M420.79,542.66
	c-2.21,18.49-3.29,36.14-3.15,52.49c0.07,8.19,0.45,16.03,1.13,23.5c23.12,10.71,48.57,19.38,75.76,25.59
	c-0.15-2.62-0.27-5.27-0.36-7.97c-0.73-20.52-0.13-43.56,1.61-68.21C468.93,561.9,443.74,553.3,420.79,542.66L420.79,542.66z
	 M419.52,625.75c2.33,19.26,6.85,35.71,13.72,48.35c5.49,2.73,11.11,5.34,16.88,7.79c16.71,7.11,34.54,13.03,53.23,17.58
	c-4.28-13.1-7.03-29.66-8.41-48.84C467.97,644.59,442.64,636.17,419.52,625.75L419.52,625.75z M439.71,683.98
	c4.04,5.09,8.63,9.2,13.83,12.19c18.75,9.64,38.6,17.43,59.32,23.12c-2.61-3.63-4.93-7.96-6.97-12.93
	c-20.49-4.75-39.98-11.09-58.18-18.83C445.01,686.39,442.34,685.2,439.71,683.98L439.71,683.98z M644.1,115.5
	c-14.75-2.42-30.15-3.8-46.03-3.96v12.16c10.41,0.2,20.46,1.41,29.94,3.48C633.32,122.12,638.7,118.19,644.1,115.5L644.1,115.5z
	 M598.07,167.98c4.73-8.38,9.54-15.99,14.39-22.68c3.44-4.75,6.92-9.06,10.43-12.89c-7.92-1.49-16.24-2.39-24.82-2.56V167.98
	L598.07,167.98z M591.92,193.15c-9.71,20.29-19.05,43.73-27.8,69.25c8.81,1.86,18.13,2.93,27.8,3.12V193.15L591.92,193.15z
	 M562.15,268.25c-9.3,27.75-17.92,57.79-25.58,88.77c17.53,3.49,36.1,5.45,55.35,5.64v-90.99
	C581.57,271.48,571.58,270.29,562.15,268.25L562.15,268.25z M535.11,362.98c-0.88,3.62-1.74,7.25-2.6,10.89
	c-6.91,29.59-12.92,59.78-17.84,89.46c24.44,4.83,50.37,7.53,77.25,7.72V368.81C572.18,368.62,553.11,366.58,535.11,362.98
	L535.11,362.98z M513.68,469.4c-5.23,32.5-9.12,64.29-11.39,93.83c28.29,6.11,58.39,9.51,89.64,9.72v-95.74
	C564.71,477.02,538.45,474.29,513.68,469.4L513.68,469.4z M501.83,569.42c-1.67,24.08-2.25,46.58-1.54,66.63
	c0.11,3.26,0.27,6.44,0.46,9.55c28.77,6.12,59.39,9.53,91.17,9.73v-76.24C560.55,578.9,530.3,575.52,501.83,569.42L501.83,569.42z
	 M501.17,651.97c1.51,19.84,4.48,36.56,9.1,49.11c25.83,5.77,53.23,8.98,81.65,9.2v-48.79
	C560.34,661.29,529.88,657.96,501.17,651.97L501.17,651.97z M513.2,708c3.01,6.19,6.55,10.96,10.68,14.1
	c21.88,5.15,44.64,7.99,68.04,8.22v-13.91C564.6,716.2,538.2,713.28,513.2,708L513.2,708z"/>
</svg>
